<svg xmlns="http://www.w3.org/2000/svg" xmlns:xlink="http://www.w3.org/1999/xlink" xmlns:lucid="lucid" width="1177" height="638"><g transform="translate(-350 -631)" lucid:page-tab-id="0_0"><path d="M840 645c0-2.76 2.24-5 5-5h150c2.76 0 5 2.24 5 5v150c0 2.76-2.24 5-5 5H845c-2.76 0-5-2.24-5-5z" stroke="#000" stroke-width="2" fill="#fff"/><path d="M840 674.67h160m-160 90.66h160" stroke="#000" stroke-width="2" fill="none"/><use xlink:href="#a" transform="matrix(1,0,0,1,848,648) translate(47.391975308641975 12.444444444444446)"/><use xlink:href="#b" transform="matrix(1,0,0,1,852,682.6666666666666) translate(0 12.611111111111104)"/><use xlink:href="#c" transform="matrix(1,0,0,1,852,682.6666666666666) translate(9.462962962962964 12.611111111111104)"/><use xlink:href="#d" transform="matrix(1,0,0,1,852,682.6666666666666) translate(84.47530864197532 12.611111111111104)"/><use xlink:href="#b" transform="matrix(1,0,0,1,852,682.6666666666666) translate(0 31.277777777777775)"/><use xlink:href="#e" transform="matrix(1,0,0,1,852,682.6666666666666) translate(9.462962962962964 31.277777777777775)"/><use xlink:href="#d" transform="matrix(1,0,0,1,852,682.6666666666666) translate(83.65432098765433 31.277777777777775)"/><use xlink:href="#b" transform="matrix(1,0,0,1,852,682.6666666666666) translate(0 49.94444444444444)"/><use xlink:href="#f" transform="matrix(1,0,0,1,852,682.6666666666666) translate(9.462962962962964 49.94444444444444)"/><use xlink:href="#g" transform="matrix(1,0,0,1,852,682.6666666666666) translate(81.06172839506173 49.94444444444444)"/><use xlink:href="#b" transform="matrix(1,0,0,1,852,682.6666666666666) translate(0 68.61111111111111)"/><use xlink:href="#h" transform="matrix(1,0,0,1,852,682.6666666666666) translate(9.462962962962964 68.61111111111111)"/><use xlink:href="#i" transform="matrix(1,0,0,1,852,682.6666666666666) translate(55.13580246913581 68.61111111111111)"/><use xlink:href="#j" transform="matrix(1,0,0,1,852,773.3333333333333) translate(0 12.61111111111111)"/><use xlink:href="#k" transform="matrix(1,0,0,1,852,773.3333333333333) translate(13.395061728395063 12.61111111111111)"/><path d="M980 825c0-2.76 2.24-5 5-5h210c2.76 0 5 2.24 5 5v131c0 2.76-2.24 5-5 5H985c-2.76 0-5-2.24-5-5z" stroke="#000" stroke-width="2" fill="#fff"/><path d="M980 854.67h220m-220 72h220" stroke="#000" stroke-width="2" fill="none"/><use xlink:href="#l" transform="matrix(1,0,0,1,988,828) translate(75.20987654320987 12.444444444444446)"/><use xlink:href="#b" transform="matrix(1,0,0,1,992,862.6666666666666) translate(0 12.444444444444446)"/><use xlink:href="#m" transform="matrix(1,0,0,1,992,862.6666666666666) translate(9.462962962962964 12.444444444444446)"/><use xlink:href="#n" transform="matrix(1,0,0,1,992,862.6666666666666) translate(97.52469135802471 12.444444444444446)"/><use xlink:href="#b" transform="matrix(1,0,0,1,992,862.6666666666666) translate(0 31.111111111111118)"/><use xlink:href="#o" transform="matrix(1,0,0,1,992,862.6666666666666) translate(9.462962962962964 31.111111111111118)"/><use xlink:href="#p" transform="matrix(1,0,0,1,992,862.6666666666666) translate(96.6604938271605 31.111111111111118)"/><use xlink:href="#b" transform="matrix(1,0,0,1,992,862.6666666666666) translate(0 49.777777777777786)"/><use xlink:href="#q" transform="matrix(1,0,0,1,992,862.6666666666666) translate(9.462962962962964 49.777777777777786)"/><use xlink:href="#r" transform="matrix(1,0,0,1,992,862.6666666666666) translate(72.50617283950618 49.777777777777786)"/><use xlink:href="#j" transform="matrix(1,0,0,1,992,934.6666666666666) translate(0 12.61111111111111)"/><use xlink:href="#k" transform="matrix(1,0,0,1,992,934.6666666666666) translate(13.395061728395063 12.61111111111111)"/><path d="M600 825c0-2.76 2.24-5 5-5h250c2.76 0 5 2.24 5 5v150c0 2.76-2.24 5-5 5H605c-2.76 0-5-2.24-5-5z" stroke="#000" stroke-width="2" fill="#fff"/><path d="M600 854.67h260m-260 90.66h260" stroke="#000" stroke-width="2" fill="none"/><use xlink:href="#s" transform="matrix(1,0,0,1,608,828) translate(93.52469135802468 12.444444444444446)"/><use xlink:href="#b" transform="matrix(1,0,0,1,612,862.6666666666666) translate(0 12.611111111111104)"/><use xlink:href="#t" transform="matrix(1,0,0,1,612,862.6666666666666) translate(9.462962962962964 12.611111111111104)"/><use xlink:href="#u" transform="matrix(1,0,0,1,612,862.6666666666666) translate(42.21604938271605 12.611111111111104)"/><use xlink:href="#b" transform="matrix(1,0,0,1,612,862.6666666666666) translate(0 31.277777777777775)"/><use xlink:href="#v" transform="matrix(1,0,0,1,612,862.6666666666666) translate(9.462962962962964 31.277777777777775)"/><use xlink:href="#w" transform="matrix(1,0,0,1,612,862.6666666666666) translate(71.59876543209877 31.277777777777775)"/><use xlink:href="#b" transform="matrix(1,0,0,1,612,862.6666666666666) translate(0 49.94444444444444)"/><use xlink:href="#x" transform="matrix(1,0,0,1,612,862.6666666666666) translate(9.462962962962964 49.94444444444444)"/><use xlink:href="#y" transform="matrix(1,0,0,1,612,862.6666666666666) translate(104.43827160493828 49.94444444444444)"/><use xlink:href="#b" transform="matrix(1,0,0,1,612,862.6666666666666) translate(0 68.61111111111111)"/><use xlink:href="#q" transform="matrix(1,0,0,1,612,862.6666666666666) translate(9.462962962962964 68.61111111111111)"/><use xlink:href="#r" transform="matrix(1,0,0,1,612,862.6666666666666) translate(72.50617283950618 68.61111111111111)"/><use xlink:href="#j" transform="matrix(1,0,0,1,612,953.3333333333333) translate(0 12.61111111111111)"/><use xlink:href="#k" transform="matrix(1,0,0,1,612,953.3333333333333) translate(13.395061728395063 12.61111111111111)"/><path d="M940 1025c0-2.76 2.24-5 5-5h230c2.76 0 5 2.24 5 5v189c0 2.76-2.24 5-5 5H945c-2.76 0-5-2.24-5-5z" stroke="#000" stroke-width="2" fill="#fff"/><path d="M940 1054.67h240M940 1165h240" stroke="#000" stroke-width="2" fill="none"/><use xlink:href="#z" transform="matrix(1,0,0,1,948,1028) translate(86.98148148148148 12.444444444444446)"/><use xlink:href="#b" transform="matrix(1,0,0,1,952,1062.6666666666667) translate(0 13.277777777777768)"/><use xlink:href="#A" transform="matrix(1,0,0,1,952,1062.6666666666667) translate(9.462962962962964 13.277777777777768)"/><use xlink:href="#d" transform="matrix(1,0,0,1,952,1062.6666666666667) translate(56.95061728395062 13.277777777777768)"/><use xlink:href="#b" transform="matrix(1,0,0,1,952,1062.6666666666667) translate(0 31.94444444444444)"/><use xlink:href="#B" transform="matrix(1,0,0,1,952,1062.6666666666667) translate(9.462962962962964 31.94444444444444)"/><use xlink:href="#g" transform="matrix(1,0,0,1,952,1062.6666666666667) translate(81.10493827160494 31.94444444444444)"/><use xlink:href="#b" transform="matrix(1,0,0,1,952,1062.6666666666667) translate(0 50.611111111111114)"/><use xlink:href="#C" transform="matrix(1,0,0,1,952,1062.6666666666667) translate(9.462962962962964 50.611111111111114)"/><use xlink:href="#g" transform="matrix(1,0,0,1,952,1062.6666666666667) translate(76.82716049382717 50.611111111111114)"/><use xlink:href="#b" transform="matrix(1,0,0,1,952,1062.6666666666667) translate(0 69.27777777777779)"/><use xlink:href="#D" transform="matrix(1,0,0,1,952,1062.6666666666667) translate(9.462962962962964 69.27777777777779)"/><use xlink:href="#E" transform="matrix(1,0,0,1,952,1062.6666666666667) translate(69.82716049382717 69.27777777777779)"/><use xlink:href="#b" transform="matrix(1,0,0,1,952,1062.6666666666667) translate(0 87.94444444444444)"/><use xlink:href="#F" transform="matrix(1,0,0,1,952,1062.6666666666667) translate(9.462962962962964 87.94444444444444)"/><use xlink:href="#G" transform="matrix(1,0,0,1,952,1062.6666666666667) translate(76.87037037037037 87.94444444444444)"/><use xlink:href="#j" transform="matrix(1,0,0,1,952,1173) translate(0 13.277777777777775)"/><use xlink:href="#H" transform="matrix(1,0,0,1,952,1173) translate(13.395061728395063 13.277777777777775)"/><use xlink:href="#j" transform="matrix(1,0,0,1,952,1173) translate(0 31.944444444444446)"/><use xlink:href="#I" transform="matrix(1,0,0,1,952,1173) translate(13.395061728395063 31.944444444444446)"/><use xlink:href="#J" transform="matrix(1,0,0,1,952,1173) translate(155.94444444444446 31.944444444444446)"/><path d="M482.43 1085c0-2.76 2.24-5 5-5h250c2.77 0 5 2.24 5 5v169c0 2.76-2.23 5-5 5h-250c-2.76 0-5-2.24-5-5z" stroke="#000" stroke-width="2" fill="#fff"/><path d="M482.43 1114.67h260m-260 72h260" stroke="#000" stroke-width="2" fill="none"/><use xlink:href="#K" transform="matrix(1,0,0,1,490.43420789630886,1088) translate(81.44753086419753 12.444444444444446)"/><use xlink:href="#j" transform="matrix(1,0,0,1,494.43420789630886,1122.6666666666667) translate(0 12.444444444444446)"/><use xlink:href="#A" transform="matrix(1,0,0,1,494.43420789630886,1122.6666666666667) translate(13.395061728395063 12.444444444444446)"/><use xlink:href="#d" transform="matrix(1,0,0,1,494.43420789630886,1122.6666666666667) translate(60.88271604938272 12.444444444444446)"/><use xlink:href="#j" transform="matrix(1,0,0,1,494.43420789630886,1122.6666666666667) translate(0 31.111111111111118)"/><use xlink:href="#L" transform="matrix(1,0,0,1,494.43420789630886,1122.6666666666667) translate(13.395061728395063 31.111111111111118)"/><use xlink:href="#M" transform="matrix(1,0,0,1,494.43420789630886,1122.6666666666667) translate(81.53703703703704 31.111111111111118)"/><use xlink:href="#j" transform="matrix(1,0,0,1,494.43420789630886,1122.6666666666667) translate(0 49.777777777777786)"/><use xlink:href="#F" transform="matrix(1,0,0,1,494.43420789630886,1122.6666666666667) translate(13.395061728395063 49.777777777777786)"/><use xlink:href="#G" transform="matrix(1,0,0,1,494.43420789630886,1122.6666666666667) translate(80.80246913580247 49.777777777777786)"/><g><use xlink:href="#j" transform="matrix(1,0,0,1,494.43420789630886,1194.6666666666667) translate(0 12.444444444444446)"/><use xlink:href="#H" transform="matrix(1,0,0,1,494.43420789630886,1194.6666666666667) translate(13.395061728395063 12.444444444444446)"/><use xlink:href="#j" transform="matrix(1,0,0,1,494.43420789630886,1194.6666666666667) translate(0 31.111111111111118)"/><use xlink:href="#N" transform="matrix(1,0,0,1,494.43420789630886,1194.6666666666667) translate(13.395061728395063 31.111111111111118)"/><use xlink:href="#O" transform="matrix(1,0,0,1,494.43420789630886,1194.6666666666667) translate(162.6851851851852 31.111111111111118)"/><use xlink:href="#j" transform="matrix(1,0,0,1,494.43420789630886,1194.6666666666667) translate(0 49.777777777777786)"/><use xlink:href="#I" transform="matrix(1,0,0,1,494.43420789630886,1194.6666666666667) translate(13.395061728395063 49.777777777777786)"/><use xlink:href="#J" transform="matrix(1,0,0,1,494.43420789630886,1194.6666666666667) translate(155.94444444444446 49.777777777777786)"/></g><path d="M360 825c0-2.76 2.24-5 5-5h145.13c2.76 0 5 2.24 5 5v43c0 2.76-2.24 5-5 5H365c-2.76 0-5-2.24-5-5z" stroke="#000" stroke-width="2" fill="#fff"/><g><use xlink:href="#P" transform="matrix(1,0,0,1,368,828) translate(5.293209876543216 12.444444444444446)"/><use xlink:href="#Q" transform="matrix(1,0,0,1,368,828) translate(54.20679012345679 31.111111111111118)"/></g><path d="M360 905c0-2.76 2.24-5 5-5h145.13c2.76 0 5 2.24 5 5v43c0 2.76-2.24 5-5 5H365c-2.76 0-5-2.24-5-5z" stroke="#000" stroke-width="2" fill="#fff"/><g><use xlink:href="#P" transform="matrix(1,0,0,1,368,908) translate(5.293209876543216 12.444444444444446)"/><use xlink:href="#R" transform="matrix(1,0,0,1,368,908) translate(39.407407407407405 31.111111111111118)"/></g><path d="M730 818v-93c0-2.76 2.24-5 5-5h79.52" stroke="#000" stroke-width="2" fill="none"/><path d="M731 819h-2v-1.03h2z"/><path d="M837.04 720l-21.52 12.73v-25.46z" stroke="#000" stroke-width="2" fill="#fff"/><path d="M1090 818v-93c0-2.76-2.24-5-5-5h-59.52" stroke="#000" stroke-width="2" fill="none"/><path d="M1091 819h-2v-1.03h2z"/><path d="M1002.96 720l21.52-12.73v25.46z" stroke="#000" stroke-width="2" fill="#fff"/><path d="M612.43 1048.25V1025c0-2.76 2.24-5 5-5H725c2.76 0 5-2.24 5-5v-3.25" stroke="#000" stroke-width="2" fill="none"/><path d="M612.43 1077.6l-14.85-14.86 14.85-15.15 14.85 15.14zM730 982.4l14.85 14.86L730 1012.4l-14.85-15.14z" stroke="#000" stroke-width="2" fill="#fff"/><g><use xlink:href="#S" transform="matrix(1,0,0,1,577.4342078963089,1042.1904989485727) translate(0 14.4)"/></g><g><use xlink:href="#S" transform="matrix(1,0,0,1,695.0000000000001,980.5009045908812) translate(0 14.4)"/></g><path d="M774.18 1169.5H895c2.76 0 5-2.24 5-5v-269c0-2.76 2.24-5 5-5h73" stroke="#000" stroke-width="2" fill="none"/><path d="M744.85 1169.5l14.85-14.85 15.15 14.85-15.15 14.85z" stroke="#000" stroke-width="2" fill="#fff"/><path d="M979 891.5h-1.03v-2H979z"/><g><use xlink:href="#T" transform="matrix(1,0,0,1,775.7089953212226,1143.8999999999999) translate(0 14.4)"/></g><g><use xlink:href="#U" transform="matrix(1,0,0,1,937.0037972630424,864.9000000000001) translate(0 14.4)"/></g><path d="M1211.75 1119.5H1236c2.76 0 5-2.24 5-5v-219c0-2.76-2.24-5-5-5h-4.25" stroke="#000" stroke-width="2" fill="none"/><path d="M1182.4 1119.5l14.86-14.85 15.15 14.85-15.14 14.85zM1202.4 890.5l14.86-14.85 15.15 14.85-15.14 14.85z" stroke="#000" stroke-width="2" fill="#fff"/><g><use xlink:href="#V" transform="matrix(1,0,0,1,1213,1123.5) translate(0 14.4)"/></g><g><use xlink:href="#V" transform="matrix(1,0,0,1,1206,910) translate(0 14.4)"/></g><path d="M517.13 926.5H598" stroke="#000" stroke-width="2" fill="none"/><path d="M517.16 927.5h-1.03v-2h1.03zM599 927.5h-1.03v-2H599z"/><g><use xlink:href="#W" transform="matrix(1,0,0,1,519.5,930.5) translate(0 14.4)"/></g><g><use xlink:href="#X" transform="matrix(1,0,0,1,568,930.5) translate(0 14.4)"/></g><path d="M517.13 846.5H598" stroke="#000" stroke-width="2" fill="none"/><path d="M517.16 847.5h-1.03v-2h1.03zM599 847.5h-1.03v-2H599z"/><g><use xlink:href="#W" transform="matrix(1,0,0,1,519.5,850.5) translate(0 14.4)"/></g><g><use xlink:href="#X" transform="matrix(1,0,0,1,567,850.5) translate(0 14.4)"/></g><path d="M938 1119.5h-33c0-2.76-2.24-5-5-5s-5 2.24-5 5h-68.5c-2.76 0-5-2.24-5-5v-109.02" stroke="#000" stroke-width="2" fill="none"/><path d="M939 1120.5h-1.03v-2H939z"/><path d="M821.5 982.96l12.73 21.52h-25.46z" stroke="#000" stroke-width="2" fill="#fff"/><g><use xlink:href="#X" transform="matrix(1,0,0,1,907.6928039352322,1123.5) translate(0 14.4)"/></g><g><use xlink:href="#W" transform="matrix(1,0,0,1,803.5,980.1232656303331) translate(0 14.4)"/></g><path d="M1280 925c0-2.76 2.24-5 5-5h230c2.76 0 5 2.24 5 5v131c0 2.76-2.24 5-5 5h-230c-2.76 0-5-2.24-5-5z" stroke="#000" stroke-width="2" fill="#fff"/><path d="M1280 954.67h240m-240 72h240" stroke="#000" stroke-width="2" fill="none"/><g><use xlink:href="#Y" transform="matrix(1,0,0,1,1288,928) translate(69.26543209876543 12.444444444444446)"/></g><g><use xlink:href="#b" transform="matrix(1,0,0,1,1292,962.6666666666666) translate(0 12.444444444444446)"/><use xlink:href="#Z" transform="matrix(1,0,0,1,1292,962.6666666666666) translate(9.462962962962964 12.444444444444446)"/><use xlink:href="#d" transform="matrix(1,0,0,1,1292,962.6666666666666) translate(70.73456790123457 12.444444444444446)"/><use xlink:href="#b" transform="matrix(1,0,0,1,1292,962.6666666666666) translate(0 31.111111111111118)"/><use xlink:href="#aa" transform="matrix(1,0,0,1,1292,962.6666666666666) translate(9.462962962962964 31.111111111111118)"/><use xlink:href="#g" transform="matrix(1,0,0,1,1292,962.6666666666666) translate(87.15432098765433 31.111111111111118)"/><use xlink:href="#b" transform="matrix(1,0,0,1,1292,962.6666666666666) translate(0 49.777777777777786)"/><use xlink:href="#ab" transform="matrix(1,0,0,1,1292,962.6666666666666) translate(9.462962962962964 49.777777777777786)"/><use xlink:href="#ac" transform="matrix(1,0,0,1,1292,962.6666666666666) translate(63.864197530864196 49.777777777777786)"/></g><g><use xlink:href="#j" transform="matrix(1,0,0,1,1292,1034.6666666666665) translate(0 12.61111111111111)"/><use xlink:href="#k" transform="matrix(1,0,0,1,1292,1034.6666666666665) translate(13.395061728395063 12.61111111111111)"/></g><path d="M1202 864.5h193c2.76 0 5 2.24 5 5V918" stroke="#000" stroke-width="2" fill="none"/><path d="M1202.03 865.5H1201v-2h1.03zM1401 919h-2v-1.03h2z"/><g><use xlink:href="#W" transform="matrix(1,0,0,1,1205.7876515201162,838.9000000000001) translate(0 14.4)"/></g><g><use xlink:href="#W" transform="matrix(1,0,0,1,1408,881.6335173025413) translate(0 14.4)"/></g><path d="M1400 1063v192c0 2.76-2.24 5-5 5h-330c-2.76 0-5-2.24-5-5v-34" stroke="#000" stroke-width="2" fill="none"/><path d="M1401 1063.03h-2V1062h2zM1061 1221.03h-2V1220h2z"/><g><use xlink:href="#X" transform="matrix(1,0,0,1,1408,1061.3207223491718) translate(0 14.4)"/></g><g><use xlink:href="#X" transform="matrix(1,0,0,1,1068,1230.84350970689) translate(0 14.4)"/></g><defs><path d="M30-248c87 1 191-15 191 75 0 78-77 80-158 76V0H30v-248zm33 125c57 0 124 11 124-50 0-59-68-47-124-48v98" id="ad"/><path d="M100-194c63 0 86 42 84 106H49c0 40 14 67 53 68 26 1 43-12 49-29l28 8c-11 28-37 45-77 45C44 4 14-33 15-96c1-61 26-98 85-98zm52 81c6-60-76-77-97-28-3 7-6 17-6 28h103" id="ae"/><path d="M114-163C36-179 61-72 57 0H25l-1-190h30c1 12-1 29 2 39 6-27 23-49 58-41v29" id="af"/><path d="M135-143c-3-34-86-38-87 0 15 53 115 12 119 90S17 21 10-45l28-5c4 36 97 45 98 0-10-56-113-15-118-90-4-57 82-63 122-42 12 7 21 19 24 35" id="ag"/><path d="M100-194c62-1 85 37 85 99 1 63-27 99-86 99S16-35 15-95c0-66 28-99 85-99zM99-20c44 1 53-31 53-75 0-43-8-75-51-75s-53 32-53 75 10 74 51 75" id="ah"/><path d="M117-194c89-4 53 116 60 194h-32v-121c0-31-8-49-39-48C34-167 62-67 57 0H25l-1-190h30c1 10-1 24 2 32 11-22 29-35 61-36" id="ai"/><g id="a"><use transform="matrix(0.04320987654320988,0,0,0.04320987654320988,0,0)" xlink:href="#ad"/><use transform="matrix(0.04320987654320988,0,0,0.04320987654320988,10.370370370370372,0)" xlink:href="#ae"/><use transform="matrix(0.04320987654320988,0,0,0.04320987654320988,19.01234567901235,0)" xlink:href="#af"/><use transform="matrix(0.04320987654320988,0,0,0.04320987654320988,24.154320987654323,0)" xlink:href="#ag"/><use transform="matrix(0.04320987654320988,0,0,0.04320987654320988,31.9320987654321,0)" xlink:href="#ah"/><use transform="matrix(0.04320987654320988,0,0,0.04320987654320988,40.574074074074076,0)" xlink:href="#ai"/></g><path d="M16-82v-28h88v28H16" id="aj"/><use transform="matrix(0.04320987654320988,0,0,0.04320987654320988,0,0)" xlink:href="#aj" id="b"/><path d="M101-234c-31-9-42 10-38 44h38v23H63V0H32v-167H5v-23h27c-7-52 17-82 69-68v24" id="ak"/><path d="M24-231v-30h32v30H24zM24 0v-190h32V0H24" id="al"/><path d="M59-47c-2 24 18 29 38 22v24C64 9 27 4 27-40v-127H5v-23h24l9-43h21v43h35v23H59v120" id="am"/><path d="M190 0L58-211 59 0H30v-248h39L202-35l-2-213h31V0h-41" id="an"/><path d="M141-36C126-15 110 5 73 4 37 3 15-17 15-53c-1-64 63-63 125-63 3-35-9-54-41-54-24 1-41 7-42 31l-33-3c5-37 33-52 76-52 45 0 72 20 72 64v82c-1 20 7 32 28 27v20c-31 9-61-2-59-35zM48-53c0 20 12 33 32 33 41-3 63-29 60-74-43 2-92-5-92 41" id="ao"/><path d="M210-169c-67 3-38 105-44 169h-31v-121c0-29-5-50-35-48C34-165 62-65 56 0H25l-1-190h30c1 10-1 24 2 32 10-44 99-50 107 0 11-21 27-35 58-36 85-2 47 119 55 194h-31v-121c0-29-5-49-35-48" id="ap"/><path d="M33-154v-36h34v36H33zM33 0v-36h34V0H33" id="aq"/><g id="c"><use transform="matrix(0.04320987654320988,0,0,0.04320987654320988,0,0)" xlink:href="#ak"/><use transform="matrix(0.04320987654320988,0,0,0.04320987654320988,4.320987654320988,0)" xlink:href="#al"/><use transform="matrix(0.04320987654320988,0,0,0.04320987654320988,7.734567901234569,0)" xlink:href="#af"/><use transform="matrix(0.04320987654320988,0,0,0.04320987654320988,12.876543209876544,0)" xlink:href="#ag"/><use transform="matrix(0.04320987654320988,0,0,0.04320987654320988,20.654320987654323,0)" xlink:href="#am"/><use transform="matrix(0.04320987654320988,0,0,0.04320987654320988,24.97530864197531,0)" xlink:href="#an"/><use transform="matrix(0.04320987654320988,0,0,0.04320987654320988,36.16666666666667,0)" xlink:href="#ao"/><use transform="matrix(0.04320987654320988,0,0,0.04320987654320988,44.808641975308646,0)" xlink:href="#ap"/><use transform="matrix(0.04320987654320988,0,0,0.04320987654320988,57.7283950617284,0)" xlink:href="#ae"/><use transform="matrix(0.04320987654320988,0,0,0.04320987654320988,66.37037037037038,0)" xlink:href="#aq"/></g><path d="M185-189c-5-48-123-54-124 2 14 75 158 14 163 119 3 78-121 87-175 55-17-10-28-26-33-46l33-7c5 56 141 63 141-1 0-78-155-14-162-118-5-82 145-84 179-34 5 7 8 16 11 25" id="ar"/><path d="M177-190C167-65 218 103 67 71c-23-6-38-20-44-43l32-5c15 47 100 32 89-28v-30C133-14 115 1 83 1 29 1 15-40 15-95c0-56 16-97 71-98 29-1 48 16 59 35 1-10 0-23 2-32h30zM94-22c36 0 50-32 50-73 0-42-14-75-50-75-39 0-46 34-46 75s6 73 46 73" id="as"/><g id="d"><use transform="matrix(0.04320987654320988,0,0,0.04320987654320988,0,0)" xlink:href="#ar"/><use transform="matrix(0.04320987654320988,0,0,0.04320987654320988,10.370370370370372,0)" xlink:href="#am"/><use transform="matrix(0.04320987654320988,0,0,0.04320987654320988,14.691358024691363,0)" xlink:href="#af"/><use transform="matrix(0.04320987654320988,0,0,0.04320987654320988,19.833333333333336,0)" xlink:href="#al"/><use transform="matrix(0.04320987654320988,0,0,0.04320987654320988,23.246913580246915,0)" xlink:href="#ai"/><use transform="matrix(0.04320987654320988,0,0,0.04320987654320988,31.888888888888893,0)" xlink:href="#as"/></g><path d="M24 0v-261h32V0H24" id="at"/><g id="e"><use transform="matrix(0.04320987654320988,0,0,0.04320987654320988,0,0)" xlink:href="#at"/><use transform="matrix(0.04320987654320988,0,0,0.04320987654320988,3.4135802469135808,0)" xlink:href="#ao"/><use transform="matrix(0.04320987654320988,0,0,0.04320987654320988,12.055555555555557,0)" xlink:href="#ag"/><use transform="matrix(0.04320987654320988,0,0,0.04320987654320988,19.833333333333336,0)" xlink:href="#am"/><use transform="matrix(0.04320987654320988,0,0,0.04320987654320988,24.154320987654323,0)" xlink:href="#an"/><use transform="matrix(0.04320987654320988,0,0,0.04320987654320988,35.345679012345684,0)" xlink:href="#ao"/><use transform="matrix(0.04320987654320988,0,0,0.04320987654320988,43.98765432098766,0)" xlink:href="#ap"/><use transform="matrix(0.04320987654320988,0,0,0.04320987654320988,56.90740740740741,0)" xlink:href="#ae"/><use transform="matrix(0.04320987654320988,0,0,0.04320987654320988,65.5493827160494,0)" xlink:href="#aq"/></g><path d="M115-194c53 0 69 39 70 98 0 66-23 100-70 100C84 3 66-7 56-30L54 0H23l1-261h32v101c10-23 28-34 59-34zm-8 174c40 0 45-34 45-75 0-40-5-75-45-74-42 0-51 32-51 76 0 43 10 73 51 73" id="au"/><path d="M106-169C34-169 62-67 57 0H25v-261h32l-1 103c12-21 28-36 61-36 89 0 53 116 60 194h-32v-121c2-32-8-49-39-48" id="av"/><path d="M30-248c118-7 216 8 213 122C240-48 200 0 122 0H30v-248zM63-27c89 8 146-16 146-99s-60-101-146-95v194" id="aw"/><g id="f"><use transform="matrix(0.04320987654320988,0,0,0.04320987654320988,0,0)" xlink:href="#au"/><use transform="matrix(0.04320987654320988,0,0,0.04320987654320988,8.641975308641976,0)" xlink:href="#al"/><use transform="matrix(0.04320987654320988,0,0,0.04320987654320988,12.055555555555557,0)" xlink:href="#af"/><use transform="matrix(0.04320987654320988,0,0,0.04320987654320988,17.19753086419753,0)" xlink:href="#am"/><use transform="matrix(0.04320987654320988,0,0,0.04320987654320988,21.51851851851852,0)" xlink:href="#av"/><use transform="matrix(0.04320987654320988,0,0,0.04320987654320988,30.160493827160494,0)" xlink:href="#aw"/><use transform="matrix(0.04320987654320988,0,0,0.04320987654320988,41.351851851851855,0)" xlink:href="#ao"/><use transform="matrix(0.04320987654320988,0,0,0.04320987654320988,49.99382716049383,0)" xlink:href="#am"/><use transform="matrix(0.04320987654320988,0,0,0.04320987654320988,54.314814814814824,0)" xlink:href="#ae"/><use transform="matrix(0.04320987654320988,0,0,0.04320987654320988,62.956790123456784,0)" xlink:href="#aq"/></g><g id="g"><use transform="matrix(0.04320987654320988,0,0,0.04320987654320988,0,0)" xlink:href="#aw"/><use transform="matrix(0.04320987654320988,0,0,0.04320987654320988,11.19135802469136,0)" xlink:href="#ao"/><use transform="matrix(0.04320987654320988,0,0,0.04320987654320988,19.833333333333336,0)" xlink:href="#am"/><use transform="matrix(0.04320987654320988,0,0,0.04320987654320988,24.154320987654323,0)" xlink:href="#ae"/></g><g id="h"><use transform="matrix(0.04320987654320988,0,0,0.04320987654320988,0,0)" xlink:href="#ae"/><use transform="matrix(0.04320987654320988,0,0,0.04320987654320988,8.641975308641976,0)" xlink:href="#ap"/><use transform="matrix(0.04320987654320988,0,0,0.04320987654320988,21.56172839506173,0)" xlink:href="#ao"/><use transform="matrix(0.04320987654320988,0,0,0.04320987654320988,30.203703703703713,0)" xlink:href="#al"/><use transform="matrix(0.04320987654320988,0,0,0.04320987654320988,33.61728395061729,0)" xlink:href="#at"/><use transform="matrix(0.04320987654320988,0,0,0.04320987654320988,37.030864197530875,0)" xlink:href="#aq"/></g><g id="i"><use transform="matrix(0.04320987654320988,0,0,0.04320987654320988,0,0)" xlink:href="#ar"/><use transform="matrix(0.04320987654320988,0,0,0.04320987654320988,10.370370370370372,0)" xlink:href="#am"/><use transform="matrix(0.04320987654320988,0,0,0.04320987654320988,14.691358024691363,0)" xlink:href="#af"/><use transform="matrix(0.04320987654320988,0,0,0.04320987654320988,19.833333333333336,0)" xlink:href="#al"/><use transform="matrix(0.04320987654320988,0,0,0.04320987654320988,23.246913580246915,0)" xlink:href="#ai"/><use transform="matrix(0.04320987654320988,0,0,0.04320987654320988,31.888888888888893,0)" xlink:href="#as"/></g><path d="M118-107v75H92v-75H18v-26h74v-75h26v75h74v26h-74" id="ax"/><use transform="matrix(0.04320987654320988,0,0,0.04320987654320988,0,0)" xlink:href="#ax" id="j"/><path d="M205 0l-28-72H64L36 0H1l101-248h38L239 0h-34zm-38-99l-47-123c-12 45-31 82-46 123h93" id="ay"/><path d="M96-169c-40 0-48 33-48 73s9 75 48 75c24 0 41-14 43-38l32 2c-6 37-31 61-74 61-59 0-76-41-82-99-10-93 101-131 147-64 4 7 5 14 7 22l-32 3c-4-21-16-35-41-35" id="az"/><g id="k"><use transform="matrix(0.04320987654320988,0,0,0.04320987654320988,0,0)" xlink:href="#ay"/><use transform="matrix(0.04320987654320988,0,0,0.04320987654320988,10.370370370370372,0)" xlink:href="#az"/><use transform="matrix(0.04320987654320988,0,0,0.04320987654320988,18.148148148148152,0)" xlink:href="#az"/><use transform="matrix(0.04320987654320988,0,0,0.04320987654320988,25.925925925925927,0)" xlink:href="#ae"/><use transform="matrix(0.04320987654320988,0,0,0.04320987654320988,34.567901234567906,0)" xlink:href="#ag"/><use transform="matrix(0.04320987654320988,0,0,0.04320987654320988,42.345679012345684,0)" xlink:href="#ag"/><use transform="matrix(0.04320987654320988,0,0,0.04320987654320988,50.12345679012346,0)" xlink:href="#ah"/><use transform="matrix(0.04320987654320988,0,0,0.04320987654320988,58.76543209876544,0)" xlink:href="#af"/><use transform="matrix(0.04320987654320988,0,0,0.04320987654320988,63.90740740740741,0)" xlink:href="#ag"/></g><path d="M84 4C-5 8 30-112 23-190h32v120c0 31 7 50 39 49 72-2 45-101 50-169h31l1 190h-30c-1-10 1-25-2-33-11 22-28 36-60 37" id="aA"/><path d="M85-194c31 0 48 13 60 33l-1-100h32l1 261h-30c-2-10 0-23-3-31C134-8 116 4 85 4 32 4 16-35 15-94c0-66 23-100 70-100zm9 24c-40 0-46 34-46 75 0 40 6 74 45 74 42 0 51-32 51-76 0-42-9-74-50-73" id="aB"/><g id="l"><use transform="matrix(0.04320987654320988,0,0,0.04320987654320988,0,0)" xlink:href="#ar"/><use transform="matrix(0.04320987654320988,0,0,0.04320987654320988,10.370370370370372,0)" xlink:href="#am"/><use transform="matrix(0.04320987654320988,0,0,0.04320987654320988,14.691358024691363,0)" xlink:href="#aA"/><use transform="matrix(0.04320987654320988,0,0,0.04320987654320988,23.333333333333336,0)" xlink:href="#aB"/><use transform="matrix(0.04320987654320988,0,0,0.04320987654320988,31.97530864197531,0)" xlink:href="#ae"/><use transform="matrix(0.04320987654320988,0,0,0.04320987654320988,40.617283950617285,0)" xlink:href="#ai"/><use transform="matrix(0.04320987654320988,0,0,0.04320987654320988,49.25925925925925,0)" xlink:href="#am"/></g><path d="M160-131c35 5 61 23 61 61C221 17 115-2 30 0v-248c76 3 177-17 177 60 0 33-19 50-47 57zm-97-11c50-1 110 9 110-42 0-47-63-36-110-37v79zm0 115c55-2 124 14 124-45 0-56-70-42-124-44v89" id="aC"/><path d="M143 0L79-87 56-68V0H24v-261h32v163l83-92h37l-77 82L181 0h-38" id="aD"/><g id="m"><use transform="matrix(0.04320987654320988,0,0,0.04320987654320988,0,0)" xlink:href="#af"/><use transform="matrix(0.04320987654320988,0,0,0.04320987654320988,5.1419753086419755,0)" xlink:href="#ae"/><use transform="matrix(0.04320987654320988,0,0,0.04320987654320988,13.783950617283953,0)" xlink:href="#az"/><use transform="matrix(0.04320987654320988,0,0,0.04320987654320988,21.56172839506173,0)" xlink:href="#ah"/><use transform="matrix(0.04320987654320988,0,0,0.04320987654320988,30.203703703703713,0)" xlink:href="#af"/><use transform="matrix(0.04320987654320988,0,0,0.04320987654320988,35.345679012345684,0)" xlink:href="#aB"/><use transform="matrix(0.04320987654320988,0,0,0.04320987654320988,43.98765432098766,0)" xlink:href="#aC"/><use transform="matrix(0.04320987654320988,0,0,0.04320987654320988,54.35802469135803,0)" xlink:href="#ah"/><use transform="matrix(0.04320987654320988,0,0,0.04320987654320988,63.00000000000001,0)" xlink:href="#ah"/><use transform="matrix(0.04320987654320988,0,0,0.04320987654320988,71.64197530864199,0)" xlink:href="#aD"/><use transform="matrix(0.04320987654320988,0,0,0.04320987654320988,79.41975308641977,0)" xlink:href="#aq"/></g><path d="M233-177c-1 41-23 64-60 70L243 0h-38l-65-103H63V0H30v-248c88 3 205-21 203 71zM63-129c60-2 137 13 137-47 0-61-80-42-137-45v92" id="aE"/><g id="n"><use transform="matrix(0.04320987654320988,0,0,0.04320987654320988,0,0)" xlink:href="#aE"/><use transform="matrix(0.04320987654320988,0,0,0.04320987654320988,11.19135802469136,0)" xlink:href="#ae"/><use transform="matrix(0.04320987654320988,0,0,0.04320987654320988,19.833333333333336,0)" xlink:href="#az"/><use transform="matrix(0.04320987654320988,0,0,0.04320987654320988,27.611111111111114,0)" xlink:href="#ah"/><use transform="matrix(0.04320987654320988,0,0,0.04320987654320988,36.25308641975309,0)" xlink:href="#af"/><use transform="matrix(0.04320987654320988,0,0,0.04320987654320988,41.39506172839506,0)" xlink:href="#aB"/><use transform="matrix(0.04320987654320988,0,0,0.04320987654320988,50.037037037037045,0)" xlink:href="#aC"/><use transform="matrix(0.04320987654320988,0,0,0.04320987654320988,60.40740740740741,0)" xlink:href="#ah"/><use transform="matrix(0.04320987654320988,0,0,0.04320987654320988,69.0493827160494,0)" xlink:href="#ah"/><use transform="matrix(0.04320987654320988,0,0,0.04320987654320988,77.69135802469137,0)" xlink:href="#aD"/></g><path d="M115-194c55 1 70 41 70 98S169 2 115 4C84 4 66-9 55-30l1 105H24l-1-265h31l2 30c10-21 28-34 59-34zm-8 174c40 0 45-34 45-75s-6-73-45-74c-42 0-51 32-51 76 0 43 10 73 51 73" id="aF"/><g id="o"><use transform="matrix(0.04320987654320988,0,0,0.04320987654320988,0,0)" xlink:href="#aB"/><use transform="matrix(0.04320987654320988,0,0,0.04320987654320988,8.641975308641976,0)" xlink:href="#ae"/><use transform="matrix(0.04320987654320988,0,0,0.04320987654320988,17.283950617283953,0)" xlink:href="#aF"/><use transform="matrix(0.04320987654320988,0,0,0.04320987654320988,25.925925925925927,0)" xlink:href="#ao"/><use transform="matrix(0.04320987654320988,0,0,0.04320987654320988,34.567901234567906,0)" xlink:href="#af"/><use transform="matrix(0.04320987654320988,0,0,0.04320987654320988,39.70987654320988,0)" xlink:href="#am"/><use transform="matrix(0.04320987654320988,0,0,0.04320987654320988,44.03086419753087,0)" xlink:href="#ap"/><use transform="matrix(0.04320987654320988,0,0,0.04320987654320988,56.95061728395062,0)" xlink:href="#ae"/><use transform="matrix(0.04320987654320988,0,0,0.04320987654320988,65.5925925925926,0)" xlink:href="#ai"/><use transform="matrix(0.04320987654320988,0,0,0.04320987654320988,74.23456790123457,0)" xlink:href="#am"/><use transform="matrix(0.04320987654320988,0,0,0.04320987654320988,78.55555555555556,0)" xlink:href="#aq"/></g><g id="p"><use transform="matrix(0.04320987654320988,0,0,0.04320987654320988,0,0)" xlink:href="#aw"/><use transform="matrix(0.04320987654320988,0,0,0.04320987654320988,11.19135802469136,0)" xlink:href="#ae"/><use transform="matrix(0.04320987654320988,0,0,0.04320987654320988,19.833333333333336,0)" xlink:href="#aF"/><use transform="matrix(0.04320987654320988,0,0,0.04320987654320988,28.47530864197531,0)" xlink:href="#ao"/><use transform="matrix(0.04320987654320988,0,0,0.04320987654320988,37.117283950617285,0)" xlink:href="#af"/><use transform="matrix(0.04320987654320988,0,0,0.04320987654320988,42.25925925925926,0)" xlink:href="#am"/><use transform="matrix(0.04320987654320988,0,0,0.04320987654320988,46.58024691358024,0)" xlink:href="#ap"/><use transform="matrix(0.04320987654320988,0,0,0.04320987654320988,59.49999999999999,0)" xlink:href="#ae"/><use transform="matrix(0.04320987654320988,0,0,0.04320987654320988,68.14197530864197,0)" xlink:href="#ai"/><use transform="matrix(0.04320987654320988,0,0,0.04320987654320988,76.78395061728395,0)" xlink:href="#am"/></g><g id="q"><use transform="matrix(0.04320987654320988,0,0,0.04320987654320988,0,0)" xlink:href="#az"/><use transform="matrix(0.04320987654320988,0,0,0.04320987654320988,7.777777777777779,0)" xlink:href="#ah"/><use transform="matrix(0.04320987654320988,0,0,0.04320987654320988,16.419753086419753,0)" xlink:href="#aA"/><use transform="matrix(0.04320987654320988,0,0,0.04320987654320988,25.061728395061728,0)" xlink:href="#af"/><use transform="matrix(0.04320987654320988,0,0,0.04320987654320988,30.203703703703702,0)" xlink:href="#ag"/><use transform="matrix(0.04320987654320988,0,0,0.04320987654320988,37.98148148148148,0)" xlink:href="#ae"/><use transform="matrix(0.04320987654320988,0,0,0.04320987654320988,46.62345679012345,0)" xlink:href="#ag"/><use transform="matrix(0.04320987654320988,0,0,0.04320987654320988,54.40123456790123,0)" xlink:href="#aq"/></g><path d="M18-100v-36l175-74v27L42-118l151 64v27" id="aG"/><path d="M212-179c-10-28-35-45-73-45-59 0-87 40-87 99 0 60 29 101 89 101 43 0 62-24 78-52l27 14C228-24 195 4 139 4 59 4 22-46 18-125c-6-104 99-153 187-111 19 9 31 26 39 46" id="aH"/><path d="M18-27v-27l151-64-151-65v-27l175 74v36" id="aI"/><g id="r"><use transform="matrix(0.04320987654320988,0,0,0.04320987654320988,0,0)" xlink:href="#ar"/><use transform="matrix(0.04320987654320988,0,0,0.04320987654320988,10.370370370370372,0)" xlink:href="#ae"/><use transform="matrix(0.04320987654320988,0,0,0.04320987654320988,19.01234567901235,0)" xlink:href="#am"/><use transform="matrix(0.04320987654320988,0,0,0.04320987654320988,23.333333333333336,0)" xlink:href="#aG"/><use transform="matrix(0.04320987654320988,0,0,0.04320987654320988,32.40740740740741,0)" xlink:href="#aH"/><use transform="matrix(0.04320987654320988,0,0,0.04320987654320988,43.59876543209877,0)" xlink:href="#ah"/><use transform="matrix(0.04320987654320988,0,0,0.04320987654320988,52.24074074074075,0)" xlink:href="#aA"/><use transform="matrix(0.04320987654320988,0,0,0.04320987654320988,60.88271604938272,0)" xlink:href="#af"/><use transform="matrix(0.04320987654320988,0,0,0.04320987654320988,66.0246913580247,0)" xlink:href="#ag"/><use transform="matrix(0.04320987654320988,0,0,0.04320987654320988,73.80246913580248,0)" xlink:href="#ae"/><use transform="matrix(0.04320987654320988,0,0,0.04320987654320988,82.44444444444446,0)" xlink:href="#aI"/></g><path d="M30 0v-248h33v221h125V0H30" id="aJ"/><g id="s"><use transform="matrix(0.04320987654320988,0,0,0.04320987654320988,0,0)" xlink:href="#aJ"/><use transform="matrix(0.04320987654320988,0,0,0.04320987654320988,8.641975308641976,0)" xlink:href="#ae"/><use transform="matrix(0.04320987654320988,0,0,0.04320987654320988,17.283950617283953,0)" xlink:href="#az"/><use transform="matrix(0.04320987654320988,0,0,0.04320987654320988,25.06172839506173,0)" xlink:href="#am"/><use transform="matrix(0.04320987654320988,0,0,0.04320987654320988,29.38271604938272,0)" xlink:href="#aA"/><use transform="matrix(0.04320987654320988,0,0,0.04320987654320988,38.0246913580247,0)" xlink:href="#af"/><use transform="matrix(0.04320987654320988,0,0,0.04320987654320988,43.16666666666667,0)" xlink:href="#ae"/><use transform="matrix(0.04320987654320988,0,0,0.04320987654320988,51.808641975308646,0)" xlink:href="#af"/></g><g id="t"><use transform="matrix(0.04320987654320988,0,0,0.04320987654320988,0,0)" xlink:href="#am"/><use transform="matrix(0.04320987654320988,0,0,0.04320987654320988,4.320987654320988,0)" xlink:href="#al"/><use transform="matrix(0.04320987654320988,0,0,0.04320987654320988,7.734567901234569,0)" xlink:href="#am"/><use transform="matrix(0.04320987654320988,0,0,0.04320987654320988,12.055555555555557,0)" xlink:href="#at"/><use transform="matrix(0.04320987654320988,0,0,0.04320987654320988,15.469135802469138,0)" xlink:href="#ae"/><use transform="matrix(0.04320987654320988,0,0,0.04320987654320988,24.111111111111114,0)" xlink:href="#aq"/></g><path d="M127-220V0H93v-220H8v-28h204v28h-85" id="aK"/><g id="u"><use transform="matrix(0.04320987654320988,0,0,0.04320987654320988,0,0)" xlink:href="#aK"/><use transform="matrix(0.04320987654320988,0,0,0.04320987654320988,8.901234567901236,0)" xlink:href="#al"/><use transform="matrix(0.04320987654320988,0,0,0.04320987654320988,12.314814814814817,0)" xlink:href="#am"/><use transform="matrix(0.04320987654320988,0,0,0.04320987654320988,16.635802469135804,0)" xlink:href="#at"/><use transform="matrix(0.04320987654320988,0,0,0.04320987654320988,20.049382716049386,0)" xlink:href="#ae"/></g><g id="v"><use transform="matrix(0.04320987654320988,0,0,0.04320987654320988,0,0)" xlink:href="#aF"/><use transform="matrix(0.04320987654320988,0,0,0.04320987654320988,8.641975308641976,0)" xlink:href="#ah"/><use transform="matrix(0.04320987654320988,0,0,0.04320987654320988,17.283950617283953,0)" xlink:href="#ag"/><use transform="matrix(0.04320987654320988,0,0,0.04320987654320988,25.06172839506173,0)" xlink:href="#al"/><use transform="matrix(0.04320987654320988,0,0,0.04320987654320988,28.47530864197531,0)" xlink:href="#am"/><use transform="matrix(0.04320987654320988,0,0,0.04320987654320988,32.7962962962963,0)" xlink:href="#al"/><use transform="matrix(0.04320987654320988,0,0,0.04320987654320988,36.20987654320988,0)" xlink:href="#ah"/><use transform="matrix(0.04320987654320988,0,0,0.04320987654320988,44.851851851851855,0)" xlink:href="#ai"/><use transform="matrix(0.04320987654320988,0,0,0.04320987654320988,53.49382716049383,0)" xlink:href="#aq"/></g><g id="w"><use transform="matrix(0.04320987654320988,0,0,0.04320987654320988,0,0)" xlink:href="#ad"/><use transform="matrix(0.04320987654320988,0,0,0.04320987654320988,10.370370370370372,0)" xlink:href="#ah"/><use transform="matrix(0.04320987654320988,0,0,0.04320987654320988,19.01234567901235,0)" xlink:href="#ag"/><use transform="matrix(0.04320987654320988,0,0,0.04320987654320988,26.790123456790127,0)" xlink:href="#al"/><use transform="matrix(0.04320987654320988,0,0,0.04320987654320988,30.203703703703713,0)" xlink:href="#am"/><use transform="matrix(0.04320987654320988,0,0,0.04320987654320988,34.5246913580247,0)" xlink:href="#al"/><use transform="matrix(0.04320987654320988,0,0,0.04320987654320988,37.93827160493828,0)" xlink:href="#ah"/><use transform="matrix(0.04320987654320988,0,0,0.04320987654320988,46.580246913580254,0)" xlink:href="#ai"/></g><g id="x"><use transform="matrix(0.04320987654320988,0,0,0.04320987654320988,0,0)" xlink:href="#aB"/><use transform="matrix(0.04320987654320988,0,0,0.04320987654320988,8.641975308641976,0)" xlink:href="#ae"/><use transform="matrix(0.04320987654320988,0,0,0.04320987654320988,17.283950617283953,0)" xlink:href="#aF"/><use transform="matrix(0.04320987654320988,0,0,0.04320987654320988,25.925925925925927,0)" xlink:href="#ao"/><use transform="matrix(0.04320987654320988,0,0,0.04320987654320988,34.567901234567906,0)" xlink:href="#af"/><use transform="matrix(0.04320987654320988,0,0,0.04320987654320988,39.70987654320988,0)" xlink:href="#am"/><use transform="matrix(0.04320987654320988,0,0,0.04320987654320988,44.03086419753087,0)" xlink:href="#ap"/><use transform="matrix(0.04320987654320988,0,0,0.04320987654320988,56.95061728395062,0)" xlink:href="#ae"/><use transform="matrix(0.04320987654320988,0,0,0.04320987654320988,65.5925925925926,0)" xlink:href="#ai"/><use transform="matrix(0.04320987654320988,0,0,0.04320987654320988,74.23456790123457,0)" xlink:href="#am"/><use transform="matrix(0.04320987654320988,0,0,0.04320987654320988,78.55555555555556,0)" xlink:href="#ag"/><use transform="matrix(0.04320987654320988,0,0,0.04320987654320988,86.33333333333334,0)" xlink:href="#aq"/></g><g id="y"><use transform="matrix(0.04320987654320988,0,0,0.04320987654320988,0,0)" xlink:href="#ar"/><use transform="matrix(0.04320987654320988,0,0,0.04320987654320988,10.370370370370372,0)" xlink:href="#ae"/><use transform="matrix(0.04320987654320988,0,0,0.04320987654320988,19.01234567901235,0)" xlink:href="#am"/><use transform="matrix(0.04320987654320988,0,0,0.04320987654320988,23.333333333333336,0)" xlink:href="#aG"/><use transform="matrix(0.04320987654320988,0,0,0.04320987654320988,32.40740740740741,0)" xlink:href="#aw"/><use transform="matrix(0.04320987654320988,0,0,0.04320987654320988,43.59876543209877,0)" xlink:href="#ae"/><use transform="matrix(0.04320987654320988,0,0,0.04320987654320988,52.24074074074075,0)" xlink:href="#aF"/><use transform="matrix(0.04320987654320988,0,0,0.04320987654320988,60.88271604938272,0)" xlink:href="#ao"/><use transform="matrix(0.04320987654320988,0,0,0.04320987654320988,69.5246913580247,0)" xlink:href="#af"/><use transform="matrix(0.04320987654320988,0,0,0.04320987654320988,74.66666666666667,0)" xlink:href="#am"/><use transform="matrix(0.04320987654320988,0,0,0.04320987654320988,78.98765432098766,0)" xlink:href="#ap"/><use transform="matrix(0.04320987654320988,0,0,0.04320987654320988,91.90740740740742,0)" xlink:href="#ae"/><use transform="matrix(0.04320987654320988,0,0,0.04320987654320988,100.5493827160494,0)" xlink:href="#ai"/><use transform="matrix(0.04320987654320988,0,0,0.04320987654320988,109.19135802469137,0)" xlink:href="#am"/><use transform="matrix(0.04320987654320988,0,0,0.04320987654320988,113.51234567901236,0)" xlink:href="#aI"/></g><g id="z"><use transform="matrix(0.04320987654320988,0,0,0.04320987654320988,0,0)" xlink:href="#aH"/><use transform="matrix(0.04320987654320988,0,0,0.04320987654320988,11.19135802469136,0)" xlink:href="#ah"/><use transform="matrix(0.04320987654320988,0,0,0.04320987654320988,19.833333333333336,0)" xlink:href="#aA"/><use transform="matrix(0.04320987654320988,0,0,0.04320987654320988,28.47530864197531,0)" xlink:href="#af"/><use transform="matrix(0.04320987654320988,0,0,0.04320987654320988,33.617283950617285,0)" xlink:href="#ag"/><use transform="matrix(0.04320987654320988,0,0,0.04320987654320988,41.39506172839506,0)" xlink:href="#ae"/></g><g id="A"><use transform="matrix(0.04320987654320988,0,0,0.04320987654320988,0,0)" xlink:href="#ai"/><use transform="matrix(0.04320987654320988,0,0,0.04320987654320988,8.641975308641976,0)" xlink:href="#ao"/><use transform="matrix(0.04320987654320988,0,0,0.04320987654320988,17.283950617283953,0)" xlink:href="#ap"/><use transform="matrix(0.04320987654320988,0,0,0.04320987654320988,30.203703703703713,0)" xlink:href="#ae"/><use transform="matrix(0.04320987654320988,0,0,0.04320987654320988,38.845679012345684,0)" xlink:href="#aq"/></g><g id="B"><use transform="matrix(0.04320987654320988,0,0,0.04320987654320988,0,0)" xlink:href="#ag"/><use transform="matrix(0.04320987654320988,0,0,0.04320987654320988,7.777777777777779,0)" xlink:href="#am"/><use transform="matrix(0.04320987654320988,0,0,0.04320987654320988,12.098765432098766,0)" xlink:href="#ao"/><use transform="matrix(0.04320987654320988,0,0,0.04320987654320988,20.74074074074074,0)" xlink:href="#af"/><use transform="matrix(0.04320987654320988,0,0,0.04320987654320988,25.882716049382715,0)" xlink:href="#am"/><use transform="matrix(0.04320987654320988,0,0,0.04320987654320988,30.203703703703702,0)" xlink:href="#aw"/><use transform="matrix(0.04320987654320988,0,0,0.04320987654320988,41.39506172839506,0)" xlink:href="#ao"/><use transform="matrix(0.04320987654320988,0,0,0.04320987654320988,50.037037037037045,0)" xlink:href="#am"/><use transform="matrix(0.04320987654320988,0,0,0.04320987654320988,54.35802469135802,0)" xlink:href="#ae"/><use transform="matrix(0.04320987654320988,0,0,0.04320987654320988,63,0)" xlink:href="#aq"/></g><g id="C"><use transform="matrix(0.04320987654320988,0,0,0.04320987654320988,0,0)" xlink:href="#ae"/><use transform="matrix(0.04320987654320988,0,0,0.04320987654320988,8.641975308641976,0)" xlink:href="#ai"/><use transform="matrix(0.04320987654320988,0,0,0.04320987654320988,17.283950617283953,0)" xlink:href="#aB"/><use transform="matrix(0.04320987654320988,0,0,0.04320987654320988,25.925925925925927,0)" xlink:href="#aw"/><use transform="matrix(0.04320987654320988,0,0,0.04320987654320988,37.11728395061729,0)" xlink:href="#ao"/><use transform="matrix(0.04320987654320988,0,0,0.04320987654320988,45.75925925925927,0)" xlink:href="#am"/><use transform="matrix(0.04320987654320988,0,0,0.04320987654320988,50.080246913580254,0)" xlink:href="#ae"/><use transform="matrix(0.04320987654320988,0,0,0.04320987654320988,58.72222222222223,0)" xlink:href="#aq"/></g><g id="D"><use transform="matrix(0.04320987654320988,0,0,0.04320987654320988,0,0)" xlink:href="#at"/><use transform="matrix(0.04320987654320988,0,0,0.04320987654320988,3.4135802469135808,0)" xlink:href="#ae"/><use transform="matrix(0.04320987654320988,0,0,0.04320987654320988,12.055555555555557,0)" xlink:href="#az"/><use transform="matrix(0.04320987654320988,0,0,0.04320987654320988,19.833333333333336,0)" xlink:href="#am"/><use transform="matrix(0.04320987654320988,0,0,0.04320987654320988,24.154320987654323,0)" xlink:href="#aA"/><use transform="matrix(0.04320987654320988,0,0,0.04320987654320988,32.7962962962963,0)" xlink:href="#af"/><use transform="matrix(0.04320987654320988,0,0,0.04320987654320988,37.93827160493827,0)" xlink:href="#ae"/><use transform="matrix(0.04320987654320988,0,0,0.04320987654320988,46.58024691358024,0)" xlink:href="#af"/><use transform="matrix(0.04320987654320988,0,0,0.04320987654320988,51.722222222222214,0)" xlink:href="#aq"/></g><g id="E"><use transform="matrix(0.04320987654320988,0,0,0.04320987654320988,0,0)" xlink:href="#aJ"/><use transform="matrix(0.04320987654320988,0,0,0.04320987654320988,8.641975308641976,0)" xlink:href="#ae"/><use transform="matrix(0.04320987654320988,0,0,0.04320987654320988,17.283950617283953,0)" xlink:href="#az"/><use transform="matrix(0.04320987654320988,0,0,0.04320987654320988,25.06172839506173,0)" xlink:href="#am"/><use transform="matrix(0.04320987654320988,0,0,0.04320987654320988,29.38271604938272,0)" xlink:href="#aA"/><use transform="matrix(0.04320987654320988,0,0,0.04320987654320988,38.0246913580247,0)" xlink:href="#af"/><use transform="matrix(0.04320987654320988,0,0,0.04320987654320988,43.16666666666667,0)" xlink:href="#ae"/><use transform="matrix(0.04320987654320988,0,0,0.04320987654320988,51.808641975308646,0)" xlink:href="#af"/></g><g id="F"><use transform="matrix(0.04320987654320988,0,0,0.04320987654320988,0,0)" xlink:href="#ag"/><use transform="matrix(0.04320987654320988,0,0,0.04320987654320988,7.777777777777779,0)" xlink:href="#am"/><use transform="matrix(0.04320987654320988,0,0,0.04320987654320988,12.098765432098766,0)" xlink:href="#aA"/><use transform="matrix(0.04320987654320988,0,0,0.04320987654320988,20.74074074074074,0)" xlink:href="#aB"/><use transform="matrix(0.04320987654320988,0,0,0.04320987654320988,29.382716049382715,0)" xlink:href="#ae"/><use transform="matrix(0.04320987654320988,0,0,0.04320987654320988,38.02469135802469,0)" xlink:href="#ai"/><use transform="matrix(0.04320987654320988,0,0,0.04320987654320988,46.666666666666664,0)" xlink:href="#am"/><use transform="matrix(0.04320987654320988,0,0,0.04320987654320988,50.98765432098765,0)" xlink:href="#ag"/><use transform="matrix(0.04320987654320988,0,0,0.04320987654320988,58.76543209876543,0)" xlink:href="#aq"/></g><g id="G"><use transform="matrix(0.04320987654320988,0,0,0.04320987654320988,0,0)" xlink:href="#ar"/><use transform="matrix(0.04320987654320988,0,0,0.04320987654320988,10.370370370370372,0)" xlink:href="#ae"/><use transform="matrix(0.04320987654320988,0,0,0.04320987654320988,19.01234567901235,0)" xlink:href="#am"/><use transform="matrix(0.04320987654320988,0,0,0.04320987654320988,23.333333333333336,0)" xlink:href="#aG"/><use transform="matrix(0.04320987654320988,0,0,0.04320987654320988,32.40740740740741,0)" xlink:href="#ar"/><use transform="matrix(0.04320987654320988,0,0,0.04320987654320988,42.777777777777786,0)" xlink:href="#am"/><use transform="matrix(0.04320987654320988,0,0,0.04320987654320988,47.09876543209877,0)" xlink:href="#aA"/><use transform="matrix(0.04320987654320988,0,0,0.04320987654320988,55.74074074074075,0)" xlink:href="#aB"/><use transform="matrix(0.04320987654320988,0,0,0.04320987654320988,64.38271604938272,0)" xlink:href="#ae"/><use transform="matrix(0.04320987654320988,0,0,0.04320987654320988,73.0246913580247,0)" xlink:href="#ai"/><use transform="matrix(0.04320987654320988,0,0,0.04320987654320988,81.66666666666667,0)" xlink:href="#am"/><use transform="matrix(0.04320987654320988,0,0,0.04320987654320988,85.98765432098766,0)" xlink:href="#aI"/></g><g id="H"><use transform="matrix(0.04320987654320988,0,0,0.04320987654320988,0,0)" xlink:href="#ay"/><use transform="matrix(0.04320987654320988,0,0,0.04320987654320988,10.370370370370372,0)" xlink:href="#az"/><use transform="matrix(0.04320987654320988,0,0,0.04320987654320988,18.148148148148152,0)" xlink:href="#az"/><use transform="matrix(0.04320987654320988,0,0,0.04320987654320988,25.925925925925927,0)" xlink:href="#ae"/><use transform="matrix(0.04320987654320988,0,0,0.04320987654320988,34.567901234567906,0)" xlink:href="#ag"/><use transform="matrix(0.04320987654320988,0,0,0.04320987654320988,42.345679012345684,0)" xlink:href="#ag"/><use transform="matrix(0.04320987654320988,0,0,0.04320987654320988,50.12345679012346,0)" xlink:href="#ah"/><use transform="matrix(0.04320987654320988,0,0,0.04320987654320988,58.76543209876544,0)" xlink:href="#af"/><use transform="matrix(0.04320987654320988,0,0,0.04320987654320988,63.90740740740741,0)" xlink:href="#ag"/></g><path d="M87 75C49 33 22-17 22-94c0-76 28-126 65-167h31c-38 41-64 92-64 168S80 34 118 75H87" id="aL"/><g id="I"><use transform="matrix(0.04320987654320988,0,0,0.04320987654320988,0,0)" xlink:href="#ao"/><use transform="matrix(0.04320987654320988,0,0,0.04320987654320988,8.641975308641976,0)" xlink:href="#aB"/><use transform="matrix(0.04320987654320988,0,0,0.04320987654320988,17.283950617283953,0)" xlink:href="#aB"/><use transform="matrix(0.04320987654320988,0,0,0.04320987654320988,25.925925925925927,0)" xlink:href="#ar"/><use transform="matrix(0.04320987654320988,0,0,0.04320987654320988,36.296296296296305,0)" xlink:href="#am"/><use transform="matrix(0.04320987654320988,0,0,0.04320987654320988,40.61728395061729,0)" xlink:href="#aA"/><use transform="matrix(0.04320987654320988,0,0,0.04320987654320988,49.25925925925927,0)" xlink:href="#aB"/><use transform="matrix(0.04320987654320988,0,0,0.04320987654320988,57.90123456790124,0)" xlink:href="#ae"/><use transform="matrix(0.04320987654320988,0,0,0.04320987654320988,66.54320987654322,0)" xlink:href="#ai"/><use transform="matrix(0.04320987654320988,0,0,0.04320987654320988,75.18518518518519,0)" xlink:href="#am"/><use transform="matrix(0.04320987654320988,0,0,0.04320987654320988,79.50617283950618,0)" xlink:href="#aL"/><use transform="matrix(0.04320987654320988,0,0,0.04320987654320988,84.64814814814815,0)" xlink:href="#ar"/><use transform="matrix(0.04320987654320988,0,0,0.04320987654320988,95.01851851851853,0)" xlink:href="#am"/><use transform="matrix(0.04320987654320988,0,0,0.04320987654320988,99.33950617283949,0)" xlink:href="#aA"/><use transform="matrix(0.04320987654320988,0,0,0.04320987654320988,107.98148148148147,0)" xlink:href="#aB"/><use transform="matrix(0.04320987654320988,0,0,0.04320987654320988,116.62345679012346,0)" xlink:href="#ae"/><use transform="matrix(0.04320987654320988,0,0,0.04320987654320988,125.26543209876543,0)" xlink:href="#ai"/><use transform="matrix(0.04320987654320988,0,0,0.04320987654320988,133.90740740740742,0)" xlink:href="#am"/></g><path d="M33-261c38 41 65 92 65 168S71 34 33 75H2C39 34 66-17 66-93S39-220 2-261h31" id="aM"/><g id="J"><use transform="matrix(0.04320987654320988,0,0,0.04320987654320988,0,0)" xlink:href="#ag"/><use transform="matrix(0.04320987654320988,0,0,0.04320987654320988,7.777777777777779,0)" xlink:href="#am"/><use transform="matrix(0.04320987654320988,0,0,0.04320987654320988,12.098765432098766,0)" xlink:href="#aA"/><use transform="matrix(0.04320987654320988,0,0,0.04320987654320988,20.74074074074074,0)" xlink:href="#aB"/><use transform="matrix(0.04320987654320988,0,0,0.04320987654320988,29.382716049382715,0)" xlink:href="#ae"/><use transform="matrix(0.04320987654320988,0,0,0.04320987654320988,38.02469135802469,0)" xlink:href="#ai"/><use transform="matrix(0.04320987654320988,0,0,0.04320987654320988,46.666666666666664,0)" xlink:href="#am"/><use transform="matrix(0.04320987654320988,0,0,0.04320987654320988,50.98765432098765,0)" xlink:href="#aM"/></g><g id="K"><use transform="matrix(0.04320987654320988,0,0,0.04320987654320988,0,0)" xlink:href="#aw"/><use transform="matrix(0.04320987654320988,0,0,0.04320987654320988,11.19135802469136,0)" xlink:href="#ae"/><use transform="matrix(0.04320987654320988,0,0,0.04320987654320988,19.833333333333336,0)" xlink:href="#aF"/><use transform="matrix(0.04320987654320988,0,0,0.04320987654320988,28.47530864197531,0)" xlink:href="#ao"/><use transform="matrix(0.04320987654320988,0,0,0.04320987654320988,37.117283950617285,0)" xlink:href="#af"/><use transform="matrix(0.04320987654320988,0,0,0.04320987654320988,42.25925925925926,0)" xlink:href="#am"/><use transform="matrix(0.04320987654320988,0,0,0.04320987654320988,46.58024691358024,0)" xlink:href="#ap"/><use transform="matrix(0.04320987654320988,0,0,0.04320987654320988,59.49999999999999,0)" xlink:href="#ae"/><use transform="matrix(0.04320987654320988,0,0,0.04320987654320988,68.14197530864197,0)" xlink:href="#ai"/><use transform="matrix(0.04320987654320988,0,0,0.04320987654320988,76.78395061728395,0)" xlink:href="#am"/></g><g id="L"><use transform="matrix(0.04320987654320988,0,0,0.04320987654320988,0,0)" xlink:href="#at"/><use transform="matrix(0.04320987654320988,0,0,0.04320987654320988,3.4135802469135808,0)" xlink:href="#ae"/><use transform="matrix(0.04320987654320988,0,0,0.04320987654320988,12.055555555555557,0)" xlink:href="#az"/><use transform="matrix(0.04320987654320988,0,0,0.04320987654320988,19.833333333333336,0)" xlink:href="#am"/><use transform="matrix(0.04320987654320988,0,0,0.04320987654320988,24.154320987654323,0)" xlink:href="#aA"/><use transform="matrix(0.04320987654320988,0,0,0.04320987654320988,32.7962962962963,0)" xlink:href="#af"/><use transform="matrix(0.04320987654320988,0,0,0.04320987654320988,37.93827160493827,0)" xlink:href="#ae"/><use transform="matrix(0.04320987654320988,0,0,0.04320987654320988,46.58024691358024,0)" xlink:href="#af"/><use transform="matrix(0.04320987654320988,0,0,0.04320987654320988,51.722222222222214,0)" xlink:href="#ag"/><use transform="matrix(0.04320987654320988,0,0,0.04320987654320988,59.49999999999999,0)" xlink:href="#aq"/></g><g id="M"><use transform="matrix(0.04320987654320988,0,0,0.04320987654320988,0,0)" xlink:href="#ar"/><use transform="matrix(0.04320987654320988,0,0,0.04320987654320988,10.370370370370372,0)" xlink:href="#ae"/><use transform="matrix(0.04320987654320988,0,0,0.04320987654320988,19.01234567901235,0)" xlink:href="#am"/><use transform="matrix(0.04320987654320988,0,0,0.04320987654320988,23.333333333333336,0)" xlink:href="#aG"/><use transform="matrix(0.04320987654320988,0,0,0.04320987654320988,32.40740740740741,0)" xlink:href="#aJ"/><use transform="matrix(0.04320987654320988,0,0,0.04320987654320988,41.04938271604939,0)" xlink:href="#ae"/><use transform="matrix(0.04320987654320988,0,0,0.04320987654320988,49.69135802469136,0)" xlink:href="#az"/><use transform="matrix(0.04320987654320988,0,0,0.04320987654320988,57.46913580246914,0)" xlink:href="#am"/><use transform="matrix(0.04320987654320988,0,0,0.04320987654320988,61.79012345679013,0)" xlink:href="#aA"/><use transform="matrix(0.04320987654320988,0,0,0.04320987654320988,70.4320987654321,0)" xlink:href="#af"/><use transform="matrix(0.04320987654320988,0,0,0.04320987654320988,75.57407407407408,0)" xlink:href="#ae"/><use transform="matrix(0.04320987654320988,0,0,0.04320987654320988,84.21604938271605,0)" xlink:href="#af"/><use transform="matrix(0.04320987654320988,0,0,0.04320987654320988,89.35802469135804,0)" xlink:href="#aI"/></g><g id="N"><use transform="matrix(0.04320987654320988,0,0,0.04320987654320988,0,0)" xlink:href="#ao"/><use transform="matrix(0.04320987654320988,0,0,0.04320987654320988,8.641975308641976,0)" xlink:href="#aB"/><use transform="matrix(0.04320987654320988,0,0,0.04320987654320988,17.283950617283953,0)" xlink:href="#aB"/><use transform="matrix(0.04320987654320988,0,0,0.04320987654320988,25.925925925925927,0)" xlink:href="#aJ"/><use transform="matrix(0.04320987654320988,0,0,0.04320987654320988,34.567901234567906,0)" xlink:href="#ae"/><use transform="matrix(0.04320987654320988,0,0,0.04320987654320988,43.20987654320988,0)" xlink:href="#az"/><use transform="matrix(0.04320987654320988,0,0,0.04320987654320988,50.98765432098766,0)" xlink:href="#am"/><use transform="matrix(0.04320987654320988,0,0,0.04320987654320988,55.308641975308646,0)" xlink:href="#aA"/><use transform="matrix(0.04320987654320988,0,0,0.04320987654320988,63.95061728395062,0)" xlink:href="#af"/><use transform="matrix(0.04320987654320988,0,0,0.04320987654320988,69.0925925925926,0)" xlink:href="#ae"/><use transform="matrix(0.04320987654320988,0,0,0.04320987654320988,77.73456790123457,0)" xlink:href="#af"/><use transform="matrix(0.04320987654320988,0,0,0.04320987654320988,82.87654320987654,0)" xlink:href="#aL"/><use transform="matrix(0.04320987654320988,0,0,0.04320987654320988,88.01851851851852,0)" xlink:href="#aJ"/><use transform="matrix(0.04320987654320988,0,0,0.04320987654320988,96.66049382716048,0)" xlink:href="#ae"/><use transform="matrix(0.04320987654320988,0,0,0.04320987654320988,105.30246913580245,0)" xlink:href="#az"/><use transform="matrix(0.04320987654320988,0,0,0.04320987654320988,113.08024691358025,0)" xlink:href="#am"/><use transform="matrix(0.04320987654320988,0,0,0.04320987654320988,117.40123456790124,0)" xlink:href="#aA"/><use transform="matrix(0.04320987654320988,0,0,0.04320987654320988,126.04320987654323,0)" xlink:href="#af"/><use transform="matrix(0.04320987654320988,0,0,0.04320987654320988,131.1851851851852,0)" xlink:href="#ae"/><use transform="matrix(0.04320987654320988,0,0,0.04320987654320988,139.82716049382717,0)" xlink:href="#af"/></g><g id="O"><use transform="matrix(0.04320987654320988,0,0,0.04320987654320988,0,0)" xlink:href="#at"/><use transform="matrix(0.04320987654320988,0,0,0.04320987654320988,3.4135802469135808,0)" xlink:href="#ae"/><use transform="matrix(0.04320987654320988,0,0,0.04320987654320988,12.055555555555557,0)" xlink:href="#az"/><use transform="matrix(0.04320987654320988,0,0,0.04320987654320988,19.833333333333336,0)" xlink:href="#am"/><use transform="matrix(0.04320987654320988,0,0,0.04320987654320988,24.154320987654323,0)" xlink:href="#aA"/><use transform="matrix(0.04320987654320988,0,0,0.04320987654320988,32.7962962962963,0)" xlink:href="#af"/><use transform="matrix(0.04320987654320988,0,0,0.04320987654320988,37.93827160493827,0)" xlink:href="#ae"/><use transform="matrix(0.04320987654320988,0,0,0.04320987654320988,46.58024691358024,0)" xlink:href="#af"/><use transform="matrix(0.04320987654320988,0,0,0.04320987654320988,51.722222222222214,0)" xlink:href="#aM"/></g><path d="M15-91v-56l181-69v40L49-119l147 57v40" id="aN"/><path d="M185-48c-13 30-37 53-82 52C43 2 14-33 14-96s30-98 90-98c62 0 83 45 84 108H66c0 31 8 55 39 56 18 0 30-7 34-22zm-45-69c5-46-57-63-70-21-2 6-4 13-4 21h74" id="aO"/><path d="M135-194c87-1 58 113 63 194h-50c-7-57 23-157-34-157-59 0-34 97-39 157H25l-1-190h47c2 12-1 28 3 38 12-26 28-41 61-42" id="aP"/><path d="M85 4C-2 5 27-109 22-190h50c7 57-23 150 33 157 60-5 35-97 40-157h50l1 190h-47c-2-12 1-28-3-38-12 25-28 42-61 42" id="aQ"/><path d="M220-157c-53 9-28 100-34 157h-49v-107c1-27-5-49-29-50C55-147 81-57 75 0H25l-1-190h47c2 12-1 28 3 38 10-53 101-56 108 0 13-22 24-43 59-42 82 1 51 116 57 194h-49v-107c-1-25-5-48-29-50" id="aR"/><path d="M135-150c-39-12-60 13-60 57V0H25l-1-190h47c2 13-1 29 3 40 6-28 27-53 61-41v41" id="aS"/><path d="M133-34C117-15 103 5 69 4 32 3 11-16 11-54c-1-60 55-63 116-61 1-26-3-47-28-47-18 1-26 9-28 27l-52-2c7-38 36-58 82-57s74 22 75 68l1 82c-1 14 12 18 25 15v27c-30 8-71 5-69-32zm-48 3c29 0 43-24 42-57-32 0-66-3-65 30 0 17 8 27 23 27" id="aT"/><path d="M115-3C79 11 28 4 28-45v-112H4v-33h27l15-45h31v45h36v33H77v99c-1 23 16 31 38 25v30" id="aU"/><path d="M25-224v-37h50v37H25zM25 0v-190h50V0H25" id="aV"/><path d="M110-194c64 0 96 36 96 99 0 64-35 99-97 99-61 0-95-36-95-99 0-62 34-99 96-99zm-1 164c35 0 45-28 45-65 0-40-10-65-43-65-34 0-45 26-45 65 0 36 10 65 43 65" id="aW"/><path d="M15-22v-40l146-57-146-57v-40l181 69v56" id="aX"/><g id="P"><use transform="matrix(0.04320987654320988,0,0,0.04320987654320988,0,0)" xlink:href="#aN"/><use transform="matrix(0.04320987654320988,0,0,0.04320987654320988,9.074074074074074,0)" xlink:href="#aN"/><use transform="matrix(0.04320987654320988,0,0,0.04320987654320988,18.14814814814815,0)" xlink:href="#aO"/><use transform="matrix(0.04320987654320988,0,0,0.04320987654320988,26.790123456790127,0)" xlink:href="#aP"/><use transform="matrix(0.04320987654320988,0,0,0.04320987654320988,36.25308641975309,0)" xlink:href="#aQ"/><use transform="matrix(0.04320987654320988,0,0,0.04320987654320988,45.71604938271605,0)" xlink:href="#aR"/><use transform="matrix(0.04320987654320988,0,0,0.04320987654320988,59.543209876543216,0)" xlink:href="#aO"/><use transform="matrix(0.04320987654320988,0,0,0.04320987654320988,68.18518518518519,0)" xlink:href="#aS"/><use transform="matrix(0.04320987654320988,0,0,0.04320987654320988,74.23456790123457,0)" xlink:href="#aT"/><use transform="matrix(0.04320987654320988,0,0,0.04320987654320988,82.87654320987654,0)" xlink:href="#aU"/><use transform="matrix(0.04320987654320988,0,0,0.04320987654320988,88.01851851851852,0)" xlink:href="#aV"/><use transform="matrix(0.04320987654320988,0,0,0.04320987654320988,92.33950617283952,0)" xlink:href="#aW"/><use transform="matrix(0.04320987654320988,0,0,0.04320987654320988,101.80246913580245,0)" xlink:href="#aP"/><use transform="matrix(0.04320987654320988,0,0,0.04320987654320988,111.26543209876543,0)" xlink:href="#aX"/><use transform="matrix(0.04320987654320988,0,0,0.04320987654320988,120.33950617283949,0)" xlink:href="#aX"/></g><path d="M136-208V0H84v-208H4v-40h212v40h-80" id="aY"/><path d="M25 0v-261h50V0H25" id="aZ"/><g id="Q"><use transform="matrix(0.04320987654320988,0,0,0.04320987654320988,0,0)" xlink:href="#aY"/><use transform="matrix(0.04320987654320988,0,0,0.04320987654320988,9.160493827160494,0)" xlink:href="#aV"/><use transform="matrix(0.04320987654320988,0,0,0.04320987654320988,13.481481481481481,0)" xlink:href="#aU"/><use transform="matrix(0.04320987654320988,0,0,0.04320987654320988,18.623456790123456,0)" xlink:href="#aZ"/><use transform="matrix(0.04320987654320988,0,0,0.04320987654320988,22.944444444444443,0)" xlink:href="#aO"/></g><path d="M24-248c93 1 206-16 204 79-1 75-69 88-152 82V0H24v-248zm52 121c47 0 100 7 100-41 0-47-54-39-100-39v80" id="ba"/><path d="M137-138c1-29-70-34-71-4 15 46 118 7 119 86 1 83-164 76-172 9l43-7c4 19 20 25 44 25 33 8 57-30 24-41C81-84 22-81 20-136c-2-80 154-74 161-7" id="bb"/><g id="R"><use transform="matrix(0.04320987654320988,0,0,0.04320987654320988,0,0)" xlink:href="#ba"/><use transform="matrix(0.04320987654320988,0,0,0.04320987654320988,10.370370370370372,0)" xlink:href="#aW"/><use transform="matrix(0.04320987654320988,0,0,0.04320987654320988,19.833333333333336,0)" xlink:href="#bb"/><use transform="matrix(0.04320987654320988,0,0,0.04320987654320988,28.47530864197531,0)" xlink:href="#aV"/><use transform="matrix(0.04320987654320988,0,0,0.04320987654320988,32.7962962962963,0)" xlink:href="#aU"/><use transform="matrix(0.04320987654320988,0,0,0.04320987654320988,37.93827160493827,0)" xlink:href="#aV"/><use transform="matrix(0.04320987654320988,0,0,0.04320987654320988,42.25925925925926,0)" xlink:href="#aW"/><use transform="matrix(0.04320987654320988,0,0,0.04320987654320988,51.722222222222214,0)" xlink:href="#aP"/></g><path d="M27 0v-27h64v-190l-56 39v-29l58-41h29v221h61V0H27" id="bc"/><path d="M33 0v-38h34V0H33" id="bd"/><path d="M80-196l47-18 7 23-49 13 32 44-20 13-27-46-27 45-21-12 33-44-49-13 8-23 47 19-2-53h23" id="be"/><g id="S"><use transform="matrix(0.05,0,0,0.05,0,0)" xlink:href="#bc"/><use transform="matrix(0.05,0,0,0.05,10,0)" xlink:href="#bd"/><use transform="matrix(0.05,0,0,0.05,15,0)" xlink:href="#bd"/><use transform="matrix(0.05,0,0,0.05,20,0)" xlink:href="#be"/></g><use transform="matrix(0.05,0,0,0.05,0,0)" xlink:href="#bc" id="T"/><path d="M101-251c68 0 85 55 85 127S166 4 100 4C33 4 14-52 14-124c0-73 17-127 87-127zm-1 229c47 0 54-49 54-102s-4-102-53-102c-51 0-55 48-55 102 0 53 5 102 54 102" id="bf"/><g id="U"><use transform="matrix(0.05,0,0,0.05,0,0)" xlink:href="#bf"/><use transform="matrix(0.05,0,0,0.05,10,0)" xlink:href="#bd"/><use transform="matrix(0.05,0,0,0.05,15,0)" xlink:href="#bd"/><use transform="matrix(0.05,0,0,0.05,20,0)" xlink:href="#be"/></g><g id="V"><use transform="matrix(0.05,0,0,0.05,0,0)" xlink:href="#bf"/><use transform="matrix(0.05,0,0,0.05,10,0)" xlink:href="#bd"/><use transform="matrix(0.05,0,0,0.05,15,0)" xlink:href="#bd"/><use transform="matrix(0.05,0,0,0.05,20,0)" xlink:href="#be"/></g><use transform="matrix(0.05,0,0,0.05,0,0)" xlink:href="#bc" id="W"/><g id="X"><use transform="matrix(0.05,0,0,0.05,0,0)" xlink:href="#bf"/><use transform="matrix(0.05,0,0,0.05,10,0)" xlink:href="#bd"/><use transform="matrix(0.05,0,0,0.05,15,0)" xlink:href="#bd"/><use transform="matrix(0.05,0,0,0.05,20,0)" xlink:href="#be"/></g><g id="Y"><use transform="matrix(0.04320987654320988,0,0,0.04320987654320988,0,0)" xlink:href="#aE"/><use transform="matrix(0.04320987654320988,0,0,0.04320987654320988,11.19135802469136,0)" xlink:href="#ae"/><use transform="matrix(0.04320987654320988,0,0,0.04320987654320988,19.833333333333336,0)" xlink:href="#az"/><use transform="matrix(0.04320987654320988,0,0,0.04320987654320988,27.611111111111114,0)" xlink:href="#ah"/><use transform="matrix(0.04320987654320988,0,0,0.04320987654320988,36.25308641975309,0)" xlink:href="#af"/><use transform="matrix(0.04320987654320988,0,0,0.04320987654320988,41.39506172839506,0)" xlink:href="#aB"/><use transform="matrix(0.04320987654320988,0,0,0.04320987654320988,50.037037037037045,0)" xlink:href="#aC"/><use transform="matrix(0.04320987654320988,0,0,0.04320987654320988,60.40740740740741,0)" xlink:href="#ah"/><use transform="matrix(0.04320987654320988,0,0,0.04320987654320988,69.0493827160494,0)" xlink:href="#ah"/><use transform="matrix(0.04320987654320988,0,0,0.04320987654320988,77.69135802469137,0)" xlink:href="#aD"/></g><g id="Z"><use transform="matrix(0.04320987654320988,0,0,0.04320987654320988,0,0)" xlink:href="#ai"/><use transform="matrix(0.04320987654320988,0,0,0.04320987654320988,8.641975308641976,0)" xlink:href="#aA"/><use transform="matrix(0.04320987654320988,0,0,0.04320987654320988,17.283950617283953,0)" xlink:href="#ap"/><use transform="matrix(0.04320987654320988,0,0,0.04320987654320988,30.203703703703713,0)" xlink:href="#au"/><use transform="matrix(0.04320987654320988,0,0,0.04320987654320988,38.845679012345684,0)" xlink:href="#ae"/><use transform="matrix(0.04320987654320988,0,0,0.04320987654320988,47.48765432098766,0)" xlink:href="#af"/><use transform="matrix(0.04320987654320988,0,0,0.04320987654320988,52.62962962962963,0)" xlink:href="#aq"/></g><g id="aa"><use transform="matrix(0.04320987654320988,0,0,0.04320987654320988,0,0)" xlink:href="#al"/><use transform="matrix(0.04320987654320988,0,0,0.04320987654320988,3.4135802469135808,0)" xlink:href="#ag"/><use transform="matrix(0.04320987654320988,0,0,0.04320987654320988,11.19135802469136,0)" xlink:href="#ag"/><use transform="matrix(0.04320987654320988,0,0,0.04320987654320988,18.96913580246914,0)" xlink:href="#aA"/><use transform="matrix(0.04320987654320988,0,0,0.04320987654320988,27.611111111111114,0)" xlink:href="#ae"/><use transform="matrix(0.04320987654320988,0,0,0.04320987654320988,36.25308641975309,0)" xlink:href="#aw"/><use transform="matrix(0.04320987654320988,0,0,0.04320987654320988,47.44444444444445,0)" xlink:href="#ao"/><use transform="matrix(0.04320987654320988,0,0,0.04320987654320988,56.086419753086425,0)" xlink:href="#am"/><use transform="matrix(0.04320987654320988,0,0,0.04320987654320988,60.40740740740741,0)" xlink:href="#ae"/><use transform="matrix(0.04320987654320988,0,0,0.04320987654320988,69.0493827160494,0)" xlink:href="#aq"/></g><g id="ab"><use transform="matrix(0.04320987654320988,0,0,0.04320987654320988,0,0)" xlink:href="#ag"/><use transform="matrix(0.04320987654320988,0,0,0.04320987654320988,7.777777777777779,0)" xlink:href="#az"/><use transform="matrix(0.04320987654320988,0,0,0.04320987654320988,15.555555555555557,0)" xlink:href="#ah"/><use transform="matrix(0.04320987654320988,0,0,0.04320987654320988,24.19753086419753,0)" xlink:href="#af"/><use transform="matrix(0.04320987654320988,0,0,0.04320987654320988,29.339506172839503,0)" xlink:href="#ae"/><use transform="matrix(0.04320987654320988,0,0,0.04320987654320988,37.98148148148148,0)" xlink:href="#ag"/><use transform="matrix(0.04320987654320988,0,0,0.04320987654320988,45.75925925925927,0)" xlink:href="#aq"/></g><path d="M240 0l2-218c-23 76-54 145-80 218h-23L58-218 59 0H30v-248h44l77 211c21-75 51-140 76-211h43V0h-30" id="bg"/><path d="M68-38c1 34 0 65-14 84H32c9-13 17-26 17-46H33v-38h35" id="bh"/><g id="ac"><use transform="matrix(0.04320987654320988,0,0,0.04320987654320988,0,0)" xlink:href="#bg"/><use transform="matrix(0.04320987654320988,0,0,0.04320987654320988,12.919753086419755,0)" xlink:href="#ao"/><use transform="matrix(0.04320987654320988,0,0,0.04320987654320988,21.56172839506173,0)" xlink:href="#aF"/><use transform="matrix(0.04320987654320988,0,0,0.04320987654320988,30.203703703703713,0)" xlink:href="#aG"/><use transform="matrix(0.04320987654320988,0,0,0.04320987654320988,39.277777777777786,0)" xlink:href="#aH"/><use transform="matrix(0.04320987654320988,0,0,0.04320987654320988,50.469135802469154,0)" xlink:href="#ah"/><use transform="matrix(0.04320987654320988,0,0,0.04320987654320988,59.111111111111114,0)" xlink:href="#aA"/><use transform="matrix(0.04320987654320988,0,0,0.04320987654320988,67.7530864197531,0)" xlink:href="#af"/><use transform="matrix(0.04320987654320988,0,0,0.04320987654320988,72.89506172839508,0)" xlink:href="#ag"/><use transform="matrix(0.04320987654320988,0,0,0.04320987654320988,80.67283950617286,0)" xlink:href="#ae"/><use transform="matrix(0.04320987654320988,0,0,0.04320987654320988,89.31481481481484,0)" xlink:href="#bh"/><use transform="matrix(0.04320987654320988,0,0,0.04320987654320988,93.63580246913583,0)" xlink:href="#ar"/><use transform="matrix(0.04320987654320988,0,0,0.04320987654320988,104.00617283950618,0)" xlink:href="#av"/><use transform="matrix(0.04320987654320988,0,0,0.04320987654320988,112.64814814814817,0)" xlink:href="#ah"/><use transform="matrix(0.04320987654320988,0,0,0.04320987654320988,121.29012345679014,0)" xlink:href="#af"/><use transform="matrix(0.04320987654320988,0,0,0.04320987654320988,126.43209876543212,0)" xlink:href="#am"/><use transform="matrix(0.04320987654320988,0,0,0.04320987654320988,130.75308641975312,0)" xlink:href="#aI"/></g></defs></g></svg>